<svg xmlns="http://www.w3.org/2000/svg" xml:space="preserve" viewBox="0 0 24 24" id="Facebook">
  <path d="M13 24h-3a.501.501 0 0 1-.5-.5V14H6a.501.501 0 0 1-.5-.5v-4c0-.275.225-.5.5-.5h3.5V5.045C9.5 2.357 12.096 0 15.055 0H18c.275 0 .5.225.5.5v3c0 .275-.225.5-.5.5h-1.798C15.109 4 13.5 5.004 13.5 5.906V9h4.426a.5.5 0 0 1 .48.637l-1.149 4a.5.5 0 0 1-.479.362H13.5v9.5A.502.502 0 0 1 13 24zm-2.5-1h2v-9.5c0-.275.225-.5.5-.5h3.398l.863-3H13a.501.501 0 0 1-.5-.5V5.906C12.5 4.302 14.74 3 16.202 3H17.5V1h-2.445C12.9 1 10.5 2.661 10.5 5.045V9.5c0 .275-.225.5-.5.5H6.5v3H10c.275 0 .5.225.5.5V23z" fill="#918a7d" class="color000000 svgShape"></path>
</svg>
